# xmcd CD database file
#
# Track frame offsets:
#	150
#	2015
#	19555
#	37145
#	55187
#	71040
#	89415
#	109325
#	129965
#	144397
#
# Disc length: 2335 seconds
#
# Revision: 4
# Processed by: cddbd v1.5.2PL0 Copyright (c) Steve Scherf et al.
# Submitted via: jetAudio 7
#
DISCID=83091d0a
DTITLE=Yoo Seung Jun - Now or Never
DYEAR=1999
DGENRE=Pop
TTITLE0=Remember me
TTITLE1=열정(熱情)
TTITLE2=Shut up!!
TTITLE3=부탁해
TTITLE4=비상(飛上) (feat. 이윤정)
TTITLE5=너는 나
TTITLE6=My Story
TTITLE7=슬픈침묵 (친구이길 원했던 친구에게...)
TTITLE8=덫
TTITLE9=To be continue
EXTD=
EXTT0=
EXTT1=
EXTT2=
EXTT3=
EXTT4=
EXTT5=
EXTT6=
EXTT7=
EXTT8=
EXTT9=
PLAYORDER=
